<svg width="30" height="31" viewBox="0 0 30 31" fill="none" xmlns="http://www.w3.org/2000/svg">
<g id="skill-icons:instagram" clip-path="url(#clip0_74_181)">
<g id="Group">
<path id="Vector" d="M22.9688 0.406982H7.03125C3.148 0.406982 0 3.55498 0 7.43823V23.3757C0 27.259 3.148 30.407 7.03125 30.407H22.9688C26.852 30.407 30 27.259 30 23.3757V7.43823C30 3.55498 26.852 0.406982 22.9688 0.406982Z" fill="url(#paint0_radial_74_181)"/>
<path id="Vector_2" d="M22.9688 0.406982H7.03125C3.148 0.406982 0 3.55498 0 7.43823V23.3757C0 27.259 3.148 30.407 7.03125 30.407H22.9688C26.852 30.407 30 27.259 30 23.3757V7.43823C30 3.55498 26.852 0.406982 22.9688 0.406982Z" fill="url(#paint1_radial_74_181)"/>
<path id="Vector_3" d="M15.0011 3.68823C11.8185 3.68823 11.419 3.70218 10.1691 3.75901C8.92148 3.8162 8.06988 4.01366 7.3248 4.30347C6.55395 4.60276 5.90016 5.00319 5.24883 5.65476C4.59691 6.3062 4.19648 6.95999 3.89625 7.7305C3.60563 8.47581 3.40793 9.32776 3.3518 10.5748C3.2959 11.8248 3.28125 12.2244 3.28125 15.4071C3.28125 18.5898 3.29531 18.988 3.35203 20.2379C3.40945 21.4855 3.60691 22.3371 3.89648 23.0822C4.19602 23.853 4.59645 24.5068 5.24801 25.1582C5.89922 25.8101 6.55301 26.2114 7.32328 26.5107C8.06895 26.8005 8.92066 26.998 10.168 27.0552C11.418 27.112 11.8172 27.126 14.9996 27.126C18.1826 27.126 18.5808 27.112 19.8307 27.0552C21.0783 26.998 21.9308 26.8005 22.6765 26.5107C23.447 26.2114 24.0998 25.8101 24.7509 25.1582C25.4029 24.5068 25.8032 23.853 26.1035 23.0825C26.3916 22.3371 26.5894 21.4853 26.648 20.2382C26.7041 18.9882 26.7188 18.5898 26.7188 15.4071C26.7188 12.2244 26.7041 11.825 26.648 10.575C26.5894 9.32741 26.3916 8.47593 26.1035 7.73085C25.8032 6.95999 25.4029 6.3062 24.7509 5.65476C24.0991 5.00296 23.4472 4.60253 22.6758 4.30358C21.9287 4.01366 21.0766 3.81608 19.8291 3.75901C18.579 3.70218 18.1811 3.68823 14.9974 3.68823H15.0011ZM13.9498 5.80007C14.2618 5.7996 14.61 5.80007 15.0011 5.80007C18.1301 5.80007 18.5009 5.81132 19.7365 5.86745C20.8791 5.91972 21.4992 6.11062 21.9123 6.27104C22.4592 6.48339 22.8491 6.73733 23.259 7.14761C23.6692 7.55776 23.923 7.94835 24.1359 8.49526C24.2964 8.90776 24.4875 9.52792 24.5395 10.6705C24.5957 11.9059 24.6079 12.2769 24.6079 15.4044C24.6079 18.5319 24.5957 18.903 24.5395 20.1383C24.4873 21.2809 24.2964 21.901 24.1359 22.3137C23.9236 22.8606 23.6692 23.25 23.259 23.6599C22.8489 24.0701 22.4595 24.3239 21.9123 24.5364C21.4997 24.6975 20.8791 24.8879 19.7365 24.9402C18.5011 24.9963 18.1301 25.0085 15.0011 25.0085C11.8719 25.0085 11.501 24.9963 10.2657 24.9402C9.12316 24.8875 8.50301 24.6966 8.08957 24.5361C7.54277 24.3237 7.15207 24.0698 6.74191 23.6597C6.33176 23.2495 6.07793 22.8599 5.865 22.3127C5.70457 21.9001 5.51344 21.28 5.46141 20.1374C5.40527 18.902 5.39402 18.531 5.39402 15.4015C5.39402 12.2721 5.40527 11.903 5.46141 10.6676C5.51367 9.52499 5.70457 8.90483 5.865 8.49175C6.07746 7.94483 6.33176 7.55425 6.74203 7.14409C7.15219 6.73394 7.54277 6.47999 8.08969 6.26718C8.50277 6.10605 9.12316 5.91562 10.2657 5.86312C11.3468 5.81425 11.7657 5.7996 13.9498 5.79714V5.80007ZM21.2565 7.74585C20.4802 7.74585 19.8503 8.37515 19.8503 9.15163C19.8503 9.928 20.4802 10.5579 21.2565 10.5579C22.0329 10.5579 22.6628 9.928 22.6628 9.15163C22.6628 8.37526 22.0329 7.74538 21.2565 7.74538V7.74585ZM15.0011 9.38894C11.6776 9.38894 8.98301 12.0835 8.98301 15.4071C8.98301 18.7307 11.6776 21.424 15.0011 21.424C18.3246 21.424 21.0183 18.7307 21.0183 15.4071C21.0183 12.0837 18.3244 9.38894 15.0008 9.38894H15.0011ZM15.0011 11.5008C17.1584 11.5008 18.9074 13.2496 18.9074 15.4071C18.9074 17.5644 17.1584 19.3134 15.0011 19.3134C12.8436 19.3134 11.0948 17.5644 11.0948 15.4071C11.0948 13.2496 12.8436 11.5008 15.0011 11.5008Z" fill="white"/>
</g>
</g>
<defs>
<radialGradient id="paint0_radial_74_181" cx="0" cy="0" r="1" gradientUnits="userSpaceOnUse" gradientTransform="translate(7.96875 32.7176) rotate(-90) scale(29.7322 27.6533)">
<stop stop-color="#FFDD55"/>
<stop offset="0.1" stop-color="#FFDD55"/>
<stop offset="0.5" stop-color="#FF543E"/>
<stop offset="1" stop-color="#C837AB"/>
</radialGradient>
<radialGradient id="paint1_radial_74_181" cx="0" cy="0" r="1" gradientUnits="userSpaceOnUse" gradientTransform="translate(-5.02512 2.56804) rotate(78.681) scale(13.2905 54.7837)">
<stop stop-color="#3771C8"/>
<stop offset="0.128" stop-color="#3771C8"/>
<stop offset="1" stop-color="#6600FF" stop-opacity="0"/>
</radialGradient>
<clipPath id="clip0_74_181">
<rect width="30" height="30" fill="white" transform="translate(0 0.406982)"/>
</clipPath>
</defs>
</svg>
