<svg width="30" height="31" viewBox="0 0 30 31" fill="none" xmlns="http://www.w3.org/2000/svg">
<g id="skill-icons:linkedin" clip-path="url(#clip0_74_192)">
<g id="Group">
<path id="Vector" d="M22.9688 0.406982H7.03125C3.148 0.406982 0 3.55498 0 7.43823V23.3757C0 27.259 3.148 30.407 7.03125 30.407H22.9688C26.852 30.407 30 27.259 30 23.3757V7.43823C30 3.55498 26.852 0.406982 22.9688 0.406982Z" fill="white"/>
<path id="Vector_2" d="M22.9688 0.406982H7.03125C3.148 0.406982 0 3.55498 0 7.43823V23.3757C0 27.259 3.148 30.407 7.03125 30.407H22.9688C26.852 30.407 30 27.259 30 23.3757V7.43823C30 3.55498 26.852 0.406982 22.9688 0.406982Z" fill="#0A66C2"/>
<path id="Vector_3" d="M21.6463 25.9169H25.0764C25.2007 25.9169 25.3199 25.8676 25.4078 25.7797C25.4957 25.6918 25.5451 25.5726 25.5451 25.4483L25.5469 18.2012C25.5469 14.4133 24.7307 11.5018 20.3041 11.5018C18.6214 11.4392 17.0346 12.3067 16.1783 13.7551C16.1741 13.7621 16.1678 13.7676 16.1602 13.7707C16.1526 13.7738 16.1442 13.7743 16.1363 13.7721C16.1284 13.77 16.1214 13.7653 16.1164 13.7588C16.1114 13.7524 16.1087 13.7444 16.1086 13.7362V12.3203C16.1086 12.1959 16.0592 12.0767 15.9713 11.9888C15.8834 11.9009 15.7642 11.8515 15.6398 11.8515H12.3847C12.2604 11.8515 12.1412 11.9009 12.0533 11.9888C11.9654 12.0767 11.916 12.1959 11.916 12.3203V25.4476C11.916 25.5719 11.9654 25.6912 12.0533 25.7791C12.1412 25.867 12.2604 25.9164 12.3847 25.9164H15.8146C15.9389 25.9164 16.0581 25.867 16.146 25.7791C16.2339 25.6912 16.2833 25.5719 16.2833 25.4476V18.9586C16.2833 17.1238 16.6314 15.3469 18.9061 15.3469C21.1485 15.3469 21.1775 17.4464 21.1775 19.0774V25.4482C21.1775 25.5725 21.2269 25.6917 21.3148 25.7796C21.4027 25.8676 21.522 25.9169 21.6463 25.9169ZM4.45312 7.39452C4.45312 8.78495 5.5977 9.92894 6.98813 9.92894C8.3782 9.92882 9.52207 8.78413 9.52207 7.39405C9.52184 6.00397 8.37785 4.86011 6.98766 4.86011C5.59711 4.86011 4.45312 6.00421 4.45312 7.39452ZM5.26863 25.9169H8.70305C8.82737 25.9169 8.9466 25.8676 9.0345 25.7796C9.12241 25.6917 9.1718 25.5725 9.1718 25.4482V12.3203C9.1718 12.1959 9.12241 12.0767 9.0345 11.9888C8.9466 11.9009 8.82737 11.8515 8.70305 11.8515H5.26863C5.14431 11.8515 5.02508 11.9009 4.93718 11.9888C4.84927 12.0767 4.79988 12.1959 4.79988 12.3203V25.4482C4.79988 25.5725 4.84927 25.6917 4.93718 25.7796C5.02508 25.8676 5.14431 25.9169 5.26863 25.9169Z" fill="white"/>
</g>
</g>
<defs>
<clipPath id="clip0_74_192">
<rect width="30" height="30" fill="white" transform="translate(0 0.406982)"/>
</clipPath>
</defs>
</svg>
