<svg width="31" height="31" viewBox="0 0 31 31" fill="none" xmlns="http://www.w3.org/2000/svg">
<path d="M15.5001 27.1667C9.06883 27.1667 3.83341 21.9312 3.83341 15.5C3.83341 9.06874 9.06883 3.83332 15.5001 3.83332C21.9313 3.83332 27.1667 9.06874 27.1667 15.5C27.1667 21.9312 21.9313 27.1667 15.5001 27.1667ZM15.5001 0.916656C13.585 0.916656 11.6886 1.29387 9.91928 2.02675C8.14995 2.75963 6.54229 3.83383 5.18811 5.18802C2.4532 7.92292 0.916748 11.6322 0.916748 15.5C0.916748 19.3677 2.4532 23.0771 5.18811 25.812C6.54229 27.1661 8.14995 28.2404 9.91928 28.9732C11.6886 29.7061 13.585 30.0833 15.5001 30.0833C19.3678 30.0833 23.0771 28.5469 25.8121 25.812C28.547 23.0771 30.0834 19.3677 30.0834 15.5C30.0834 13.5849 29.7062 11.6885 28.9733 9.91919C28.2404 8.14986 27.1662 6.5422 25.8121 5.18802C24.4579 3.83383 22.8502 2.75963 21.0809 2.02675C19.3116 1.29387 17.4152 0.916656 15.5001 0.916656ZM16.9584 8.20832H14.0417V14.0417H8.20841V16.9583H14.0417V22.7917H16.9584V16.9583H22.7917V14.0417H16.9584V8.20832Z" fill="white"/>
</svg>
