<svg width="30" height="31" viewBox="0 0 30 31" fill="none" xmlns="http://www.w3.org/2000/svg">
<g id="skill-icons:twitter" clip-path="url(#clip0_74_176)">
<g id="Group">
<path id="Vector" d="M22.9688 0.406982H7.03125C3.148 0.406982 0 3.55498 0 7.43823V23.3757C0 27.259 3.148 30.407 7.03125 30.407H22.9688C26.852 30.407 30 27.259 30 23.3757V7.43823C30 3.55498 26.852 0.406982 22.9688 0.406982Z" fill="white"/>
<path id="Vector_2" d="M22.9688 0.406982H7.03125C3.148 0.406982 0 3.55498 0 7.43823V23.3757C0 27.259 3.148 30.407 7.03125 30.407H22.9688C26.852 30.407 30 27.259 30 23.3757V7.43823C30 3.55498 26.852 0.406982 22.9688 0.406982Z" fill="#1D9BF0"/>
<path id="Vector_3" d="M23.3873 11.1192C23.4002 11.3052 23.4002 11.4912 23.4002 11.6789C23.4002 17.3973 19.047 23.9924 11.0868 23.9924V23.9889C8.73518 23.9923 6.43231 23.3188 4.45312 22.0488C4.79508 22.0899 5.13867 22.1105 5.4832 22.1113C7.43222 22.1128 9.32517 21.4591 10.8579 20.2551C9.95484 20.2381 9.0797 19.9392 8.35481 19.4004C7.62993 18.8616 7.09154 18.1097 6.81492 17.2499C7.46329 17.3749 8.13171 17.3494 8.76867 17.1753C6.74977 16.7674 5.29723 14.9935 5.29723 12.9334V12.8785C5.89909 13.2138 6.57267 13.3995 7.26129 13.4202C5.3598 12.1493 4.77363 9.61956 5.92184 7.64166C7.00832 8.97865 8.3639 10.0721 9.90053 10.8511C11.4372 11.63 13.1205 12.077 14.8411 12.163C14.6695 11.4245 14.6949 10.654 14.9146 9.92835C15.1343 9.20275 15.5406 8.54754 16.093 8.02827C17.8361 6.38975 20.5774 6.47377 22.2159 8.21588C23.1851 8.02454 24.1145 7.66925 24.9641 7.1653C24.641 8.16733 23.965 9.01788 23.0617 9.55873C23.9196 9.45766 24.7574 9.22802 25.5469 8.87752C24.9661 9.74729 24.2348 10.5063 23.3873 11.1192Z" fill="white"/>
</g>
</g>
<defs>
<clipPath id="clip0_74_176">
<rect width="30" height="30" fill="white" transform="translate(0 0.406982)"/>
</clipPath>
</defs>
</svg>
