<svg width="43" height="31" viewBox="0 0 43 31" fill="none" xmlns="http://www.w3.org/2000/svg">
<g id="logos:youtube-icon" clip-path="url(#clip0_74_186)">
<path id="Vector" d="M41.7244 5.08615C41.4796 4.18174 41.0023 3.35722 40.3398 2.6947C39.6773 2.03217 38.8528 1.55475 37.9484 1.30998C34.6374 0.406982 21.3117 0.406982 21.3117 0.406982C21.3117 0.406982 7.98537 0.434316 4.67437 1.33732C3.76995 1.5821 2.94544 2.05954 2.28294 2.7221C1.62044 3.38466 1.14307 4.20921 0.898365 5.11365C-0.103135 10.9967 -0.491635 19.961 0.925865 25.6087C1.17059 26.5131 1.64798 27.3376 2.31047 28.0001C2.97297 28.6626 3.79747 29.1401 4.70187 29.3848C8.01287 30.2878 21.3389 30.2878 21.3389 30.2878C21.3389 30.2878 34.6647 30.2878 37.9755 29.3848C38.88 29.1401 39.7045 28.6627 40.367 28.0001C41.0296 27.3376 41.507 26.5131 41.7517 25.6087C42.808 19.7173 43.1335 10.7585 41.7244 5.08615Z" fill="#FF0000"/>
<path id="Vector_2" d="M17.0702 21.7503L28.1248 15.3473L17.0702 8.94434V21.7503Z" fill="white"/>
</g>
<defs>
<clipPath id="clip0_74_186">
<rect width="42.6667" height="30" fill="white" transform="translate(0 0.406982)"/>
</clipPath>
</defs>
</svg>
